<svg version="1.1" xmlns="http://www.w3.org/2000/svg" xmlns:xlink="http://www.w3.org/1999/xlink" width="48" height="48"><defs><linearGradient x1="8.44321" y1="9.22823" x2="44.60011" y2="43.81508" gradientUnits="userSpaceOnUse" id="color-1"><stop offset="0.83" stop-color="#000000" stop-opacity="0.19"></stop><stop offset="1" stop-color="#000000" stop-opacity="0"></stop></linearGradient><filter id="dropshadow-base"><feColorMatrix type="matrix" values="0 0 0 0 0  0 0 0 0 0  0 0 0 0 0  0 0 0 .8 0"></feColorMatrix> <feOffset dx="0" dy="1"></feOffset> <feGaussianBlur stdDeviation="1"></feGaussianBlur> <feComposite in="SourceGraphic"></feComposite></filter><filter id="dropshadow-banner" x="-10%" y="-10%" width="120%" height="130%"><feColorMatrix type="matrix" values="0 0 0 0 0  0 0 0 0 0  0 0 0 0 0  0 0 0 .4 0"></feColorMatrix> <feOffset dx="0" dy="1"></feOffset> <feGaussianBlur stdDeviation="0.5"></feGaussianBlur> <feComposite in="SourceGraphic"></feComposite></filter></defs><g fill="none" fill-rule="nonzero" stroke="none" stroke-width="none" stroke-linecap="butt" stroke-linejoin="miter" stroke-miterlimit="10" stroke-dasharray="" stroke-dashoffset="0" font-family="none" font-weight="none" font-size="none" text-anchor="none" style="mix-blend-mode: normal"><path d="M2,24c0,-12.15026 9.84974,-22 22,-22c12.15026,0 22,9.84974 22,22c0,12.15026 -9.84974,22 -22,22c-12.15026,0 -22,-9.84974 -22,-22z" id="base 1 9" fill="#efecf5" stroke-width="1"></path><path d="M15.39012,14.86287c-2.5381,2.5381 -2.5381,6.6625 0,9.20061l-5.04333,-5.04333c-2.5381,-2.5381 -2.5381,-6.6625 0,-9.20061zM17.15573,25.83722l4.60437,-4.60437l1.74324,1.74324c0.96777,-0.96684 1.79504,-1.79299 2.38929,-2.38591c-1.15515,-2.48115 -0.34166,-5.98731 2.24525,-8.57421c3.10754,-3.11568 7.56548,-3.70953 9.95715,-1.326l0,0l5.04333,5.04333c2.38353,2.38353 1.78968,6.83333 -1.326,9.94901c-2.58691,2.58692 -6.09306,3.40854 -8.57421,2.24525l-2.39167,2.39167l-2.29981,-2.29981c-0.70504,0.70436 -1.48465,1.48339 -2.30307,2.30131l2.30069,2.30069l-11.19366,11.19366l-7.34552,-7.34552c0,0 4.52696,-4.52696 8.89239,-8.89057zM39.55403,14.27457c-2.11362,-0.06413 -4.49085,0.89784 -6.37282,2.78473c-1.87654,1.87654 -2.81991,4.2368 -2.75557,6.33863c2.10303,0.06668 4.46543,-0.88098 6.34339,-2.75895c1.88424,-1.88424 2.84616,-4.25641 2.78499,-6.36442zM34.69463,38.77176l2.30219,-2.30219l2.82093,2.82093c-0.75593,0.78184 -1.56931,1.50779 -2.43332,2.17105z" fill="url(#color-1)" stroke-width="1"></path><path d="M17.15573,25.83722l4.60437,-4.60437l-11.41331,-11.41331c-2.5381,2.5381 -2.5381,6.66251 0,9.20061zM28.19483,22.88424c2.48115,1.16329 5.98731,0.34167 8.57422,-2.24524c3.11568,-3.11568 3.70953,-7.56548 1.32599,-9.94902c-2.39167,-2.38353 -6.84961,-1.78968 -9.95715,1.32599c-2.58691,2.58691 -3.4004,6.09306 -2.24524,8.57422c-3.62004,3.61191 -15.88752,15.87938 -15.88752,15.87938l2.30219,2.30219l11.19366,-11.19366l11.19366,11.19366l2.30219,-2.30219l-11.19366,-11.19366z" fill="none" stroke-width="0"></path><path d="M10.34679,19.02015c-2.5381,-2.5381 -2.5381,-6.66251 0,-9.20061l11.41331,11.41331l-4.60437,4.60437zM25.80316,25.27591l11.19366,11.19366l-2.30219,2.30219l-11.19366,-11.19366l-11.19366,11.19366l-2.30219,-2.30219c0,0 12.26747,-12.26747 15.88752,-15.87938c-1.15516,-2.48115 -0.34167,-5.98731 2.24524,-8.57422c3.10754,-3.11568 7.56548,-3.70953 9.95715,-1.32599c2.38353,2.38353 1.78968,6.83334 -1.32599,9.94902c-2.58691,2.58691 -6.09306,3.40854 -8.57422,2.24524z" fill="#9c64a6" stroke-width="0"></path><path d="M2,24c0,-12.15026 9.84974,-22 22,-22c12.15026,0 22,9.84974 22,22c0,12.15026 -9.84974,22 -22,22c-12.15026,0 -22,-9.84974 -22,-22z" id="base 1 5 1" fill="none" stroke-width="1"></path><path d="M2,24c0,-12.15026 9.84974,-22 22,-22c12.15026,0 22,9.84974 22,22c0,12.15026 -9.84974,22 -22,22c-12.15026,0 -22,-9.84974 -22,-22z" id="base 1 1 1" fill="none" stroke-width="1"></path><g fill="#000000" stroke-width="1" font-family="Roboto,sans-serif" font-weight="400" font-size="14" text-anchor="start"></g><rect x="2" y="2" width="44" height="22" fill="none" stroke-width="1"></rect><path d="M2,24v-22h44v22z" fill="none" stroke-width="1"></path><path d="M2,24v-22h44v22z" fill="none" stroke-width="1"></path><path d="M2,24v-22h44v22z" fill="none" stroke-width="1"></path><path d="M2,24v-22h44v22z" fill="none" stroke-width="1"></path><g fill="#000000" stroke-width="1" font-family="Roboto,sans-serif" font-weight="400" font-size="14" text-anchor="start"></g><rect x="2" y="2" width="44" height="22" fill="none" stroke-width="1"></rect><path d="M2,24v-22h44v22z" fill="none" stroke-width="1"></path><path d="M2,24v-22h44v22z" fill="none" stroke-width="1"></path><path d="M2,24v-22h44v22z" fill="none" stroke-width="1"></path><path d="M2,24v-22h44v22z" fill="none" stroke-width="1"></path></g></svg>