<svg version="1.1" xmlns="http://www.w3.org/2000/svg" xmlns:xlink="http://www.w3.org/1999/xlink" width="48" height="48"><defs><linearGradient x1="9.30004" y1="8.02173" x2="47.64303" y2="52.57347" gradientUnits="userSpaceOnUse" id="color-1"><stop offset="0" stop-color="#000000" stop-opacity="0.19"></stop><stop offset="1" stop-color="#000000" stop-opacity="0"></stop></linearGradient><filter id="dropshadow-base"><feColorMatrix type="matrix" values="0 0 0 0 0  0 0 0 0 0  0 0 0 0 0  0 0 0 .8 0"></feColorMatrix> <feOffset dx="0" dy="1"></feOffset> <feGaussianBlur stdDeviation="1"></feGaussianBlur> <feComposite in="SourceGraphic"></feComposite></filter><filter id="dropshadow-banner" x="-10%" y="-10%" width="120%" height="130%"><feColorMatrix type="matrix" values="0 0 0 0 0  0 0 0 0 0  0 0 0 0 0  0 0 0 .4 0"></feColorMatrix> <feOffset dx="0" dy="1"></feOffset> <feGaussianBlur stdDeviation="0.5"></feGaussianBlur> <feComposite in="SourceGraphic"></feComposite></filter></defs><g fill="none" fill-rule="nonzero" stroke="none" stroke-width="none" stroke-linecap="butt" stroke-linejoin="miter" stroke-miterlimit="10" stroke-dasharray="" stroke-dashoffset="0" font-family="none" font-weight="none" font-size="none" text-anchor="none" style="mix-blend-mode: normal"><path d="M2,24c0,-12.15026 9.84974,-22 22,-22c12.15026,0 22,9.84974 22,22c0,12.15026 -9.84974,22 -22,22c-12.15026,0 -22,-9.84974 -22,-22z" id="base 1 5" fill="#efecf5" stroke-width="1"></path><path d="M25.00433,8.02173l3.65218,3.65218c2.0087,0 3.65218,-1.64348 3.65218,-3.65218l8.94301,8.94301c0,2.0087 -1.64348,3.65218 -3.65218,3.65218c-1.00435,0 -1.9174,-0.41087 -2.57936,-1.07283l-8.94301,-8.94301c-0.66196,-0.66196 -1.07283,-1.575 -1.07283,-2.57936zM31.39567,29.84349l-1.01248,-1.01248l-1.0909,5.66562l2.10338,2.10338zM18.24305,43.44298l-8.94301,-8.94301l0.73043,-3.56086l8.94783,1.73478l0.5307,-2.75624l-4.54811,-4.54811v-8.5826l9.58695,-3.92609c0.45651,-0.1826 0.91303,-0.2739 1.36956,-0.2739c0.97815,0 1.90282,0.37424 2.56948,1.0409l7.75711,7.75711c0.78084,0.21624 1.60391,0.33242 2.45602,0.33242l6.82956,6.82956c-0.38121,1.81408 -0.98591,3.54589 -1.78396,5.1653c-1.96153,-0.62427 -3.71685,-1.71095 -5.15015,-3.14426l-0.92105,-0.92105l-1.07922,5.39609l3.71799,3.71799c-2.2245,2.4569 -4.99629,4.409 -8.12303,5.66394l-0.67815,-0.67815l-0.21929,1.01567c-0.84051,0.29521 -1.70437,0.54083 -2.58806,0.73335c-3.685,-0.74593 -10.46161,-2.05284 -10.46161,-2.05284zM28.06719,24.02498l-0.14712,0.06025l0.11256,0.11256zM38.52366,25.36838l-3.83416,-3.83416c-0.39955,0.01994 -0.79911,0.10982 -1.19865,0.26964l-2.46896,1.0111c2.09986,1.57998 4.68521,2.51588 7.50177,2.55343z" fill="url(#color-1)" stroke-width="1"></path><path d="M28.65652,11.67391c2.0087,0 3.65217,-1.64348 3.65217,-3.65217c0,-2.0087 -1.64348,-3.65217 -3.65217,-3.65217c-2.0087,0 -3.65217,1.64348 -3.65217,3.65217c0,2.0087 1.64348,3.65217 3.65217,3.65217zM22.08261,37.05652l1.73478,-8.03478l3.92609,3.65217v10.95652h3.65217v-13.78696l-3.74348,-3.74348l1.09565,-5.47826c2.37391,2.92174 5.93478,4.74783 9.95217,4.74783v-3.65217c-3.37826,0 -6.3,-1.82609 -7.94348,-4.47391l-1.73478,-2.92174c-0.63913,-1.09565 -1.82609,-1.73478 -3.10435,-1.73478c-0.45652,0 -0.91304,0.0913 -1.36957,0.27391l-9.58696,3.92609v8.58261h3.65217v-6.11739l3.19565,-1.27826l-2.83043,14.7l-8.94783,-1.73478l-0.73043,3.56087c0,0 12.78261,2.46522 12.78261,2.55652z" fill="none" stroke-width="0"></path><path d="M25.00435,8.02174c0,-2.0087 1.64348,-3.65217 3.65217,-3.65217c2.0087,0 3.65217,1.64348 3.65217,3.65217c0,2.0087 -1.64348,3.65217 -3.65217,3.65217c-2.0087,0 -3.65217,-1.64348 -3.65217,-3.65217zM9.3,34.5l0.73043,-3.56087l8.94783,1.73478l2.83043,-14.7l-3.19565,1.27826v6.11739h-3.65217v-8.58261l9.58696,-3.92609c0.45652,-0.18261 0.91304,-0.27391 1.36957,-0.27391c1.27826,0 2.46522,0.63913 3.10435,1.73478l1.73478,2.92174c1.64348,2.64783 4.56522,4.47391 7.94348,4.47391v3.65217c-4.01739,0 -7.57826,-1.82609 -9.95217,-4.74783l-1.09565,5.47826l3.74348,3.74348v13.78696h-3.65217v-10.95652l-3.92609,-3.65217l-1.73478,8.03478c0,-0.0913 -12.78261,-2.55652 -12.78261,-2.55652z" fill="#f1c40f" stroke-width="0"></path><path d="M2,24c0,-12.15026 9.84974,-22 22,-22c12.15026,0 22,9.84974 22,22c0,12.15026 -9.84974,22 -22,22c-12.15026,0 -22,-9.84974 -22,-22z" id="base 1 1 1" fill="none" stroke-width="1"></path><g fill="#000000" stroke-width="1" font-family="Roboto,sans-serif" font-weight="400" font-size="14" text-anchor="start"></g><rect x="2" y="2" width="44" height="22" fill="none" stroke-width="1"></rect><path d="M2,24v-22h44v22z" fill="none" stroke-width="1"></path><path d="M2,24v-22h44v22z" fill="none" stroke-width="1"></path><path d="M2,24v-22h44v22z" fill="none" stroke-width="1"></path><path d="M2,24v-22h44v22z" fill="none" stroke-width="1"></path></g></svg>